<svg xmlns="http://www.w3.org/2000/svg" viewBox="0 0 64 64"><g id="Layer_46" data-name="Layer 46"><path d="M55,6.75H48.38V4a1.25,1.25,0,0,0-2.5,0V6.75H33.25V4a1.25,1.25,0,0,0-2.5,0V6.75H18.12V4a1.25,1.25,0,0,0-2.5,0V6.75H9A4.26,4.26,0,0,0,4.75,11V57A4.26,4.26,0,0,0,9,61.25H48.71A10.55,10.55,0,0,0,59.25,50.71V11A4.26,4.26,0,0,0,55,6.75ZM9,9.25h6.62V12a1.25,1.25,0,1,0,2.5,0V9.25H30.75V12a1.25,1.25,0,0,0,2.5,0V9.25H45.88V12a1.25,1.25,0,0,0,2.5,0V9.25H55A1.76,1.76,0,0,1,56.75,11v5.5H7.25V11A1.76,1.76,0,0,1,9,9.25ZM7.25,57V19h49.5V48.85H48.1a1.24,1.24,0,0,0-1.25,1.25v8.65H9A1.76,1.76,0,0,1,7.25,57Zm42.1,1.72V51.35h7.37A8.05,8.05,0,0,1,49.35,58.72Z" id="id_103" style="fill: rgb(242, 245, 245);"></path><path d="M47.46,31.38a3.76,3.76,0,1,0-5.7-4.92L29.58,40.58a1.25,1.25,0,0,1-.93.44,1.27,1.27,0,0,1-.95-.39l-5.58-5.85a3.77,3.77,0,0,0-5.33-.13A3.78,3.78,0,0,0,16.66,40l9.42,9.87A3.8,3.8,0,0,0,28.81,51h.09a3.76,3.76,0,0,0,2.76-1.3ZM28.84,48.52a1.18,1.18,0,0,1-.95-.4l-9.42-9.87a1.27,1.27,0,0,1,.05-1.79,1.22,1.22,0,0,1,.87-.35h0a1.3,1.3,0,0,1,.89.39l5.58,5.85a3.87,3.87,0,0,0,2.82,1.17,3.77,3.77,0,0,0,2.76-1.31L43.65,28.09a1.27,1.27,0,0,1,1.92,1.66L29.77,48.08A1.29,1.29,0,0,1,28.84,48.52Z" id="id_104" style="fill: rgb(235, 243, 245);"></path></g></svg>